<?xml version="1.0" encoding="utf-8"?>
<!-- Generator: Adobe Illustrator 18.0.0, SVG Export Plug-In . SVG Version: 6.00 Build 0)  -->
<!DOCTYPE svg PUBLIC "-//W3C//DTD SVG 1.1//EN" "http://www.w3.org/Graphics/SVG/1.1/DTD/svg11.dtd">
<svg version="1.1" id="Layer_1" xmlns="http://www.w3.org/2000/svg" xmlns:xlink="http://www.w3.org/1999/xlink" x="0px" y="0px"
	 viewBox="0 0 512 512" enable-background="new 0 0 512 512" xml:space="preserve">
<g>
	<g>
		<path fill="#7233F0" d="M349.4,321.3H152.7C72.6,321.3,7.4,256.1,7.4,176S72.6,30.6,152.7,30.6h196.7c15.1,0,27.3,12.2,27.3,27.3
			s-12.2,27.3-27.3,27.3H152.7c-50,0-90.7,40.7-90.7,90.7s40.7,90.7,90.7,90.7h196.7c15.1,0,27.3,12.2,27.3,27.3
			S364.5,321.3,349.4,321.3z"/>
	</g>
	<g>
		<path fill="#414CDA" d="M103.6,498.3c-7,0-14-2.7-19.3-8c-10.7-10.7-10.7-28,0-38.6l45.3-45.3c13.9-13.9,32.7-21.7,52.3-21.7
			h176.2c49.9,0,91.4-39.9,91.8-89.8c0.5-50.4-40.4-91.6-90.7-91.6h-196c-14.8,0-27.4-11.5-28-26.3c-0.6-15.5,11.9-28.3,27.3-28.3
			h195.1c80.2,0,146.5,64.3,146.9,144.5c0.5,80.5-64.9,146.2-145.3,146.2H204.5c-19.6,0-38.4,7.8-52.3,21.7l-29.3,29.3
			C117.6,495.6,110.6,498.3,103.6,498.3z"/>
	</g>
</g>
</svg>
