<?xml version="1.0" encoding="utf-8"?>
<!-- Generator: Adobe Illustrator 18.0.0, SVG Export Plug-In . SVG Version: 6.00 Build 0)  -->
<!DOCTYPE svg PUBLIC "-//W3C//DTD SVG 1.1//EN" "http://www.w3.org/Graphics/SVG/1.1/DTD/svg11.dtd">
<svg version="1.1" id="Layer_1" xmlns="http://www.w3.org/2000/svg" xmlns:xlink="http://www.w3.org/1999/xlink" x="0px" y="0px"
	 viewBox="0 0 512 512" enable-background="new 0 0 512 512" xml:space="preserve">
<g>
	<g>
		<g>
			<path fill="#7233F0" d="M303.8,235.8H203.1c-41,0-74.4-33.4-74.4-74.4s33.4-74.4,74.4-74.4h100.7c7.7,0,14,6.3,14,14
				s-6.3,14-14,14H203.1c-25.6,0-46.4,20.8-46.4,46.4s20.8,46.4,46.4,46.4h100.7c7.7,0,14,6.3,14,14
				C317.8,229.5,311.6,235.8,303.8,235.8z"/>
		</g>
		<g>
			<path fill="#414CDA" d="M177.9,326.4c-3.6,0-7.2-1.4-9.9-4.1c-5.5-5.5-5.5-14.3,0-19.8l23.2-23.2c7.1-7.1,16.7-11.1,26.8-11.1
				h90.2c25.6,0,46.8-20.4,47-46c0.3-25.8-20.7-46.9-46.4-46.9H208.5c-7.6,0-14-5.9-14.3-13.5c-0.3-8,6.1-14.5,14-14.5h99.9
				c41.1,0,75,32.9,75.2,74c0.2,41.2-33.2,74.9-74.4,74.9h-79.2c-10,0-19.7,4-26.8,11.1l-15,15C185.1,325,181.5,326.4,177.9,326.4z"
				/>
		</g>
	</g>
	<g>
		<path fill="#7233F0" d="M20.2,423.2c-2.9-1.3-5.2-3.1-6.9-5.5c-1.7-2.4-2.5-5.1-2.5-8.3h9.6c0.2,2.4,1.1,4.3,2.8,5.8
			c1.7,1.5,4,2.3,7,2.3c3.1,0,5.5-0.7,7.2-2.2c1.7-1.5,2.6-3.4,2.6-5.8c0-1.8-0.5-3.3-1.6-4.5c-1.1-1.2-2.4-2-4-2.7
			c-1.6-0.6-3.8-1.3-6.7-2c-3.6-0.9-6.5-1.9-8.7-2.9c-2.2-1-4.1-2.5-5.7-4.5c-1.6-2-2.4-4.8-2.4-8.2c0-3.1,0.8-5.9,2.4-8.3
			c1.6-2.4,3.8-4.2,6.6-5.4c2.8-1.3,6.1-1.9,9.8-1.9c5.3,0,9.6,1.3,13,4c3.4,2.7,5.3,6.3,5.6,10.9h-9.9c-0.2-2-1.1-3.7-2.8-5.1
			c-1.7-1.4-4-2.1-6.8-2.1c-2.6,0-4.7,0.7-6.3,2c-1.6,1.3-2.4,3.2-2.4,5.7c0,1.7,0.5,3.1,1.5,4.1c1,1.1,2.3,1.9,3.9,2.6
			c1.6,0.6,3.7,1.3,6.5,2c3.6,1,6.6,2,8.9,3c2.3,1,4.2,2.5,5.8,4.6c1.6,2.1,2.4,4.8,2.4,8.3c0,2.8-0.7,5.4-2.2,7.9
			c-1.5,2.5-3.7,4.4-6.5,5.9c-2.9,1.5-6.2,2.2-10.1,2.2C26.5,425.1,23.2,424.4,20.2,423.2z"/>
		<path fill="#7233F0" d="M103.4,369.8v54.7h-9v-23.9H68.6v23.9h-9v-54.7h9v23.5h25.7v-23.5H103.4z"/>
		<path fill="#7233F0" d="M126.1,421.5c-4.3-2.4-7.7-5.7-10.2-10c-2.5-4.3-3.7-9.1-3.7-14.4c0-5.4,1.2-10.2,3.7-14.4
			c2.5-4.3,5.9-7.6,10.2-10c4.3-2.4,9-3.6,14.1-3.6c5.1,0,9.9,1.2,14.1,3.6c4.3,2.4,7.6,5.7,10.1,10c2.5,4.3,3.7,9.1,3.7,14.4
			c0,5.4-1.2,10.2-3.7,14.4c-2.5,4.3-5.8,7.6-10.1,10c-4.3,2.4-9,3.6-14.1,3.6C135,425.1,130.3,423.9,126.1,421.5z M149.8,414.8
			c2.8-1.7,5.1-4,6.7-7.1c1.6-3.1,2.4-6.6,2.4-10.7c0-4-0.8-7.6-2.4-10.6c-1.6-3-3.8-5.4-6.7-7c-2.8-1.6-6.1-2.4-9.7-2.4
			c-3.6,0-6.8,0.8-9.7,2.4c-2.8,1.6-5.1,4-6.7,7c-1.6,3-2.4,6.6-2.4,10.6c0,4,0.8,7.6,2.4,10.7c1.6,3.1,3.8,5.4,6.7,7.1
			c2.8,1.7,6.1,2.5,9.7,2.5C143.7,417.3,147,416.5,149.8,414.8z"/>
		<path fill="#7233F0" d="M220.6,369.8v54.7h-9v-23.9h-25.7v23.9h-9v-54.7h9v23.5h25.7v-23.5H220.6z"/>
		<path fill="#7233F0" d="M243.3,421.5c-4.3-2.4-7.7-5.7-10.2-10c-2.5-4.3-3.7-9.1-3.7-14.4c0-5.4,1.2-10.2,3.7-14.4
			c2.5-4.3,5.9-7.6,10.2-10c4.3-2.4,9-3.6,14.1-3.6c5.1,0,9.9,1.2,14.1,3.6c4.3,2.4,7.6,5.7,10.1,10c2.5,4.3,3.7,9.1,3.7,14.4
			c0,5.4-1.2,10.2-3.7,14.4c-2.5,4.3-5.8,7.6-10.1,10c-4.3,2.4-9,3.6-14.1,3.6C252.2,425.1,247.6,423.9,243.3,421.5z M267,414.8
			c2.8-1.7,5.1-4,6.7-7.1c1.6-3.1,2.4-6.6,2.4-10.7c0-4-0.8-7.6-2.4-10.6c-1.6-3-3.8-5.4-6.7-7c-2.8-1.6-6.1-2.4-9.7-2.4
			c-3.6,0-6.8,0.8-9.7,2.4c-2.8,1.6-5.1,4-6.7,7c-1.6,3-2.4,6.6-2.4,10.6c0,4,0.8,7.6,2.4,10.7c1.6,3.1,3.8,5.4,6.7,7.1
			c2.8,1.7,6.1,2.5,9.7,2.5C261,417.3,264.2,416.5,267,414.8z"/>
		<path fill="#7233F0" d="M323.9,369.8v39.4c0,4.9-1.5,8.7-4.4,11.6c-3,2.8-6.9,4.3-11.7,4.3c-4.8,0-8.7-1.4-11.7-4.3
			c-3-2.8-4.4-6.7-4.4-11.6h9.1c0.1,2.4,0.7,4.3,1.9,5.7c1.2,1.4,2.9,2.1,5.2,2.1c2.3,0,4.1-0.7,5.3-2.2c1.2-1.4,1.8-3.3,1.8-5.7
			v-39.4H323.9z"/>
		<path fill="#414CDA" d="M395.3,394c-1.3,2.5-3.4,4.5-6.3,6c-2.9,1.5-6.6,2.3-11.1,2.3h-9.9v22.2h-9v-54.7h18.9
			c4.2,0,7.8,0.7,10.7,2.2c2.9,1.4,5.1,3.4,6.5,5.9c1.4,2.5,2.2,5.2,2.2,8.3C397.2,388.9,396.6,391.5,395.3,394z M385.5,392.7
			c1.7-1.5,2.5-3.7,2.5-6.6c0-6-3.4-9-10.2-9h-9.9V395h9.9C381.3,395,383.8,394.2,385.5,392.7z"/>
		<path fill="#414CDA" d="M438.8,413.3h-22.9l-3.9,11.2h-9.4l19.6-54.8h10.4l19.6,54.8h-9.4L438.8,413.3z M436.3,406l-8.9-25.4
			l-9,25.4H436.3z"/>
		<path fill="#414CDA" d="M501.2,369.8l-18.1,34.9v19.8h-9v-19.8L456,369.8h10l12.7,26.8l12.7-26.8H501.2z"/>
	</g>
</g>
</svg>
