<?xml version="1.0" encoding="utf-8"?>
<!-- Generator: Adobe Illustrator 18.0.0, SVG Export Plug-In . SVG Version: 6.00 Build 0)  -->
<!DOCTYPE svg PUBLIC "-//W3C//DTD SVG 1.1//EN" "http://www.w3.org/Graphics/SVG/1.1/DTD/svg11.dtd">
<svg version="1.1" id="Layer_1" xmlns="http://www.w3.org/2000/svg" xmlns:xlink="http://www.w3.org/1999/xlink" x="0px" y="0px"
	 viewBox="0 0 512 512" enable-background="new 0 0 512 512" xml:space="preserve">
<g>
	<g>
		<path fill="#414CDA" d="M-325,49c-7,0-14-2.7-19.3-8c-10.7-10.7-10.7-28,0-38.6L-299-43c13.9-13.9,32.7-21.7,52.3-21.7h176.2
			c49.9,0,91.4-39.9,91.8-89.8C21.9-204.8-19-246-69.3-246h-196c-14.8,0-27.4-11.5-28-26.3c-0.6-15.5,11.9-28.3,27.3-28.3h195.1
			c80.2,0,146.5,64.3,146.9,144.5C76.5-75.7,11.1-10-69.3-10H-224c-19.6,0-38.4,7.8-52.3,21.7L-305.7,41C-311,46.3-318,49-325,49z"
			/>
	</g>
</g>
<g>
	<g>
		<g>
			<path fill="#7233F0" d="M74.6,266.5H38.2c-14.9,0-26.9-12.1-26.9-26.9s12.1-26.9,26.9-26.9h36.5c2.8,0,5.1,2.3,5.1,5.1
				c0,2.8-2.3,5.1-5.1,5.1H38.2c-9.3,0-16.8,7.5-16.8,16.8s7.5,16.8,16.8,16.8h36.5c2.8,0,5.1,2.3,5.1,5.1S77.4,266.5,74.6,266.5z"
				/>
		</g>
		<g>
			<path fill="#414CDA" d="M29.1,299.3c-1.3,0-2.6-0.5-3.6-1.5c-2-2-2-5.2,0-7.2l8.4-8.4c2.6-2.6,6.1-4,9.7-4h32.7
				c9.3,0,16.9-7.4,17-16.6c0.1-9.3-7.5-17-16.8-17H40.1c-2.7,0-5.1-2.1-5.2-4.9c-0.1-2.9,2.2-5.2,5.1-5.2h36.2
				c14.9,0,27.2,11.9,27.2,26.8c0.1,14.9-12,27.1-26.9,27.1H47.8c-3.6,0-7.1,1.4-9.7,4l-5.4,5.4C31.7,298.9,30.4,299.3,29.1,299.3z"
				/>
		</g>
	</g>
	<g>
		<path fill="#7233F0" d="M133.2,275.9c-2.2-1-4-2.4-5.3-4.2c-1.3-1.8-1.9-3.9-1.9-6.3h7.3c0.2,1.8,0.9,3.3,2.1,4.5
			c1.3,1.2,3,1.7,5.3,1.7c2.4,0,4.2-0.6,5.5-1.7c1.3-1.1,2-2.6,2-4.4c0-1.4-0.4-2.5-1.2-3.4c-0.8-0.9-1.8-1.6-3.1-2
			c-1.2-0.5-2.9-1-5.1-1.6c-2.7-0.7-4.9-1.5-6.6-2.2c-1.7-0.7-3.2-1.9-4.4-3.5c-1.2-1.6-1.8-3.6-1.8-6.3c0-2.4,0.6-4.5,1.8-6.3
			c1.2-1.8,2.9-3.2,5.1-4.2c2.2-1,4.7-1.4,7.5-1.4c4,0,7.4,1,10,3c2.6,2,4,4.8,4.3,8.3h-7.6c-0.1-1.5-0.8-2.8-2.2-3.9
			c-1.3-1.1-3.1-1.6-5.2-1.6c-2,0-3.6,0.5-4.8,1.5c-1.2,1-1.9,2.4-1.9,4.3c0,1.3,0.4,2.3,1.2,3.2c0.8,0.8,1.8,1.5,3,2
			c1.2,0.5,2.8,1,4.9,1.6c2.8,0.8,5,1.5,6.8,2.3c1.7,0.8,3.2,1.9,4.5,3.5c1.2,1.6,1.8,3.7,1.8,6.3c0,2.1-0.6,4.1-1.7,6
			c-1.1,1.9-2.8,3.4-5,4.5c-2.2,1.1-4.8,1.7-7.7,1.7C138,277.4,135.5,276.9,133.2,275.9z"/>
		<path fill="#7233F0" d="M196.8,235.2V277h-6.9v-18.3h-19.7V277h-6.9v-41.8h6.9v17.9h19.7v-17.9H196.8z"/>
		<path fill="#7233F0" d="M214.1,274.6c-3.3-1.8-5.9-4.4-7.8-7.6c-1.9-3.3-2.9-6.9-2.9-11c0-4.1,1-7.8,2.9-11
			c1.9-3.2,4.5-5.8,7.8-7.6c3.3-1.8,6.8-2.7,10.7-2.7c3.9,0,7.5,0.9,10.8,2.7c3.3,1.8,5.8,4.4,7.7,7.6c1.9,3.2,2.8,6.9,2.8,11
			c0,4.1-0.9,7.8-2.8,11c-1.9,3.3-4.5,5.8-7.7,7.6c-3.3,1.8-6.9,2.7-10.8,2.7C221,277.4,217.4,276.5,214.1,274.6z M232.2,269.5
			c2.2-1.3,3.9-3.1,5.1-5.4c1.2-2.3,1.8-5.1,1.8-8.1c0-3.1-0.6-5.8-1.8-8.1c-1.2-2.3-2.9-4.1-5.1-5.4c-2.2-1.2-4.6-1.9-7.4-1.9
			c-2.8,0-5.2,0.6-7.4,1.9c-2.2,1.2-3.9,3-5.1,5.4c-1.2,2.3-1.8,5-1.8,8.1c0,3.1,0.6,5.8,1.8,8.1c1.2,2.3,2.9,4.2,5.1,5.4
			c2.2,1.3,4.6,1.9,7.4,1.9C227.6,271.4,230.1,270.8,232.2,269.5z"/>
		<path fill="#7233F0" d="M286.3,235.2V277h-6.9v-18.3h-19.7V277h-6.9v-41.8h6.9v17.9h19.7v-17.9H286.3z"/>
		<path fill="#7233F0" d="M303.7,274.6c-3.3-1.8-5.9-4.4-7.8-7.6c-1.9-3.3-2.9-6.9-2.9-11c0-4.1,1-7.8,2.9-11
			c1.9-3.2,4.5-5.8,7.8-7.6c3.3-1.8,6.8-2.7,10.7-2.7c3.9,0,7.5,0.9,10.8,2.7c3.3,1.8,5.8,4.4,7.7,7.6c1.9,3.2,2.8,6.9,2.8,11
			c0,4.1-0.9,7.8-2.8,11c-1.9,3.3-4.5,5.8-7.7,7.6c-3.3,1.8-6.9,2.7-10.8,2.7C310.5,277.4,306.9,276.5,303.7,274.6z M321.8,269.5
			c2.2-1.3,3.9-3.1,5.1-5.4c1.2-2.3,1.8-5.1,1.8-8.1c0-3.1-0.6-5.8-1.8-8.1c-1.2-2.3-2.9-4.1-5.1-5.4c-2.2-1.2-4.6-1.9-7.4-1.9
			c-2.8,0-5.2,0.6-7.4,1.9c-2.2,1.2-3.9,3-5.1,5.4c-1.2,2.3-1.8,5-1.8,8.1c0,3.1,0.6,5.8,1.8,8.1c1.2,2.3,2.9,4.2,5.1,5.4
			c2.2,1.3,4.6,1.9,7.4,1.9C317.2,271.4,319.6,270.8,321.8,269.5z"/>
		<path fill="#7233F0" d="M365.3,235.2v30.1c0,3.7-1.1,6.7-3.4,8.8c-2.3,2.2-5.2,3.2-8.9,3.2c-3.7,0-6.7-1.1-8.9-3.2
			c-2.3-2.2-3.4-5.1-3.4-8.8h6.9c0,1.8,0.5,3.3,1.4,4.4c0.9,1.1,2.2,1.6,4,1.6c1.8,0,3.1-0.6,4-1.7c0.9-1.1,1.4-2.6,1.4-4.4v-30.1
			H365.3z"/>
		<path fill="#414CDA" d="M419.8,253.6c-1,1.9-2.6,3.4-4.8,4.6c-2.2,1.2-5,1.8-8.5,1.8h-7.6v17h-6.9v-41.8h14.4
			c3.2,0,5.9,0.6,8.1,1.7c2.2,1.1,3.9,2.6,5,4.5c1.1,1.9,1.7,4,1.7,6.3C421.3,249.7,420.8,251.7,419.8,253.6z M412.3,252.6
			c1.3-1.2,1.9-2.9,1.9-5c0-4.6-2.6-6.9-7.8-6.9h-7.6v13.7h7.6C409.1,254.4,411,253.8,412.3,252.6z"/>
		<path fill="#414CDA" d="M453.1,268.4h-17.5l-3,8.5h-7.2l15-41.9h7.9l15,41.9h-7.2L453.1,268.4z M451.1,262.8l-6.8-19.4l-6.9,19.4
			H451.1z"/>
		<path fill="#414CDA" d="M500.8,235.2l-13.8,26.6V277h-6.9v-15.2l-13.9-26.6h7.6l9.7,20.5l9.7-20.5H500.8z"/>
	</g>
</g>
</svg>
